<?xml version="1.0" standalone="no"?>
<svg viewBox="0 0 1663 1441" version="1.1" xmlns="http://www.w3.org/2000/svg" xmlns:xlink="http://www.w3.org/1999/xlink" stroke-linecap="round" stroke-linejoin="round" fill-rule="evenodd" xml:space="preserve" >
<g fill="none" stroke="rgb(0,0,0)" stroke-width="2.07875" >
<polyline points="1114.96,1375.13 1256.7,965.99 1114.96,884.158 1020.48,1375.13 1114.96,1375.13 1209.45,1375.13 1587.41,720.5 1209.45,65.8666 1114.96,65.8666 1020.48,65.8666 925.988,65.8666 831.5,65.8666 831.5,229.52 831.5,393.183 831.5,556.837 1351.18,311.353 1303.94,229.522 1256.69,147.691 831.5,229.52 406.303,147.696 359.059,229.525 311.815,311.354 264.571,393.183 406.299,475.01 548.035,556.842 170.083,884.158 217.327,965.988 264.571,1047.82 406.299,965.99 122.839,638.671 170.083,556.842 217.327,475.012 689.501,802.483 548.306,884.002 642.52,1375.13 737.01,1375.13 831.5,1375.13 925.99,1375.13 1020.48,1375.13 " />
<polyline points="925.99,1375.13 973.236,802.332 832.041,720.188 973.236,638.668 1445.67,965.988 1492.92,884.158 1540.16,802.329 1587.41,720.5 1540.16,638.671 1492.92,556.843 1445.67,475.014 1398.43,393.183 1351.18,311.353 " />
<polyline points="642.52,1375.13 548.03,1375.13 453.547,1375.13 406.303,1293.3 359.059,1211.48 311.815,1129.65 831.5,884.163 831.5,720.5 264.571,393.183 217.327,475.012 " />
<polyline points="1303.94,1211.48 831.5,1047.82 831.5,1211.48 1256.7,1293.3 1303.94,1211.48 1351.19,1129.65 1398.43,1047.82 1256.7,965.99 1540.16,638.671 " />
<polyline points="1020.48,65.8666 1114.96,556.842 1492.92,884.158 " />
<polyline points="170.083,884.158 122.839,802.329 406.299,475.01 548.035,65.8666 642.524,65.8666 548.035,556.842 689.764,638.668 737.012,65.8666 831.5,65.8666 831.5,720.5 831.5,1375.13 831.5,1211.48 406.303,1293.3 " />
<polyline points="1445.67,965.988 1398.43,1047.82 831.5,720.5 1398.43,393.183 1256.7,475.01 1114.96,556.842 973.236,638.668 925.988,65.8666 " />
<polyline points="122.839,638.671 75.5945,720.5 453.547,1375.13 1209.45,1375.13 1256.7,1293.3 " />
<polyline points="359.059,1211.48 831.5,1047.82 831.5,884.163 1351.19,1129.65 " />
<polyline points="831.5,720.5 831.5,556.837 311.815,311.354 " />
<polyline points="1209.45,65.8666 453.547,65.8666 75.5945,720.5 " />
<polyline points="1540.16,802.329 1256.7,475.01 1114.96,65.8666 " />
<polyline points="1492.92,556.843 1114.96,884.158 973.236,802.332 1445.67,475.014 " />
<polyline points="832.041,720.188 264.571,1047.82 " />
<polyline points="548.03,1375.13 406.299,965.99 548.306,884.002 170.083,556.842 " />
<polyline points="737.01,1375.13 689.501,802.483 " />
<polyline points="737.012,65.8666 642.524,65.8666 " />
<polyline points="1303.94,229.522 831.5,393.183 359.059,229.525 " />
<polyline points="217.327,965.988 689.764,638.668 " />
</g>
</svg>
